<svg width="1629" height="220" viewBox="0 0 1629 220" fill="none" xmlns="http://www.w3.org/2000/svg">
<path d="M71.9085 10.6055C70.7014 18.3654 71.3049 25.6942 73.7191 32.5919C83.8932 26.3839 94.6708 21.5556 106.052 18.1067C117.606 14.6579 129.59 13.1059 142.006 13.4508C152.008 13.7957 160.199 15.7787 166.579 19.4C173.132 23.0213 177.788 27.591 180.547 33.1092C183.479 38.4549 184.513 44.2317 183.651 50.4396C182.961 56.6476 180.375 62.5106 175.891 68.0287C171.408 73.5469 165.114 78.2028 157.009 81.9966C148.904 85.7903 138.989 87.8596 127.262 88.2045C117.606 88.5494 107.776 87.8596 97.7748 86.1352C87.9456 84.2383 78.7199 81.0481 70.0978 76.5646C65.2694 81.9103 60.8722 87.4285 56.906 93.1191C53.1123 98.8097 49.8359 104.587 47.0768 110.45C41.7311 121.831 38.1098 132.781 36.2129 143.3C34.3161 153.819 33.9712 163.217 35.1783 171.494C36.5578 179.771 39.4031 186.41 43.7142 191.411C48.1977 196.584 54.1469 199.43 61.5619 199.947C68.6321 200.464 74.84 198.999 80.1857 195.55C85.5314 192.101 89.4976 187.704 92.0842 182.358C94.6708 177.012 95.6193 171.322 94.9295 165.286C94.2397 159.251 91.4807 153.819 86.6523 148.99C84.2381 146.749 83.5483 144.852 84.583 143.3C85.6176 141.748 87.6007 140.713 90.5322 140.196C93.6362 139.678 97.3437 139.765 101.655 140.454C105.966 140.972 110.104 142.265 114.071 144.334C118.209 146.231 121.917 148.904 125.193 152.353C128.47 155.802 130.625 160.113 131.66 165.286C132.867 172.011 132.177 178.65 129.59 185.203C127.004 191.756 122.779 197.619 116.916 202.792C111.053 207.966 103.638 212.104 94.6708 215.208C85.8763 218.312 75.8746 219.864 64.6659 219.864C51.9052 219.864 40.524 216.674 30.5223 210.294C20.6931 203.913 13.1057 195.291 7.75995 184.427C2.58669 173.563 0.172496 160.889 0.51738 146.404C1.03471 131.919 5.17332 116.571 12.9332 100.362C16.8994 92.0844 21.6416 84.0659 27.1597 76.306C32.6779 68.5461 38.8858 61.3035 45.7835 54.5782C42.3346 49.0601 40.6964 43.5419 40.8689 38.0238C41.0413 32.3332 42.2484 27.0737 44.4902 22.2453C46.7319 17.4169 49.5772 13.1921 53.026 9.57083C56.4749 5.94954 59.6651 3.44912 62.5966 2.06958C65.7005 0.690048 68.201 0.603828 70.0978 1.81092C72.1671 3.01802 72.7707 5.94954 71.9085 10.6055ZM139.42 35.1785C131.832 35.8683 123.986 38.11 115.881 41.9037C107.776 45.525 99.8441 50.3534 92.0842 56.3889C98.637 61.2173 105.88 64.7523 113.812 66.9941C121.917 69.0634 129.59 69.4945 136.833 68.2874C145.283 67.0803 151.663 64.5799 155.974 60.7862C160.285 56.82 162.527 52.8538 162.699 48.8877C163.044 44.9215 161.234 41.4726 157.267 38.5411C153.474 35.6096 147.524 34.4887 139.42 35.1785ZM233.609 80.4446C230.161 83.5485 226.281 86.8249 221.97 90.2738C217.831 93.5502 213.606 96.8266 209.295 100.103C205.156 103.379 200.932 106.57 196.621 109.674C192.482 112.605 188.688 115.364 185.239 117.951C183.17 122.607 181.532 127.176 180.325 131.66C179.118 135.971 178.428 140.023 178.255 143.817C178.083 147.438 178.428 150.715 179.29 153.646C180.152 156.405 181.618 158.561 183.687 160.113C185.584 161.492 188.171 161.924 191.447 161.406C194.896 160.716 198.69 159.164 202.829 156.75C206.967 154.164 211.192 150.715 215.503 146.404C219.987 142.093 224.298 137.006 228.436 131.143C230.161 128.384 231.971 126.573 233.868 125.711C235.765 124.848 237.317 124.762 238.524 125.452C239.731 125.969 240.335 127.263 240.335 129.332C240.507 131.229 239.731 133.643 238.007 136.575C233.868 143.645 229.126 150.197 223.78 156.233C218.607 162.096 213.089 167.183 207.226 171.494C201.535 175.805 195.672 179.254 189.637 181.841C183.601 184.255 177.738 185.462 172.048 185.462C166.012 185.462 160.839 183.393 156.528 179.254C152.389 174.943 150.147 168.649 149.803 160.372C149.458 152.094 151.441 141.834 155.752 129.591C160.063 117.175 167.823 102.776 179.031 86.3938C186.791 75.0127 194.293 65.4421 201.535 57.6822C208.95 49.7499 215.848 43.5419 222.228 39.0584C228.781 34.5749 234.644 31.8159 239.817 30.7812C245.163 29.7466 249.56 30.3501 253.009 32.5919C258.7 36.3856 259.821 42.5935 256.372 51.2156C253.095 59.8377 245.508 69.5807 233.609 80.4446ZM240.593 51.2156C239.559 50.5259 237.834 51.1294 235.42 53.0263C233.178 54.7507 230.419 57.4235 227.143 61.0448C224.039 64.6661 220.504 68.9772 216.538 73.978C212.572 78.9788 208.519 84.1521 204.38 89.4978C209.554 85.1867 214.468 80.9619 219.124 76.8233C223.953 72.5122 228.091 68.6323 231.54 65.1834C234.989 61.5622 237.576 58.5444 239.3 56.1302C241.024 53.716 241.456 52.0778 240.593 51.2156ZM278.152 98.8097C269.013 111.57 262.115 122.003 257.459 130.108C252.803 138.213 249.699 144.593 248.147 149.249C246.595 153.733 246.25 156.837 247.112 158.561C248.147 160.285 249.699 161.148 251.768 161.148C255.045 161.148 257.976 160.199 260.563 158.302C263.322 156.405 265.909 153.905 268.323 150.801C270.737 147.697 273.065 144.162 275.307 140.196C277.721 136.057 280.221 131.832 282.808 127.521C284.877 123.038 286.774 118.985 288.499 115.364C290.223 111.57 292.034 107.863 293.931 104.242C295.483 100.965 296.862 98.3786 298.069 96.4817C299.449 94.5848 300.828 93.1191 302.208 92.0844C303.76 91.0498 305.484 90.36 307.381 90.0151C309.278 89.4978 311.606 88.9805 314.365 88.4631C317.124 88.1183 319.711 87.8596 322.125 87.6872C324.539 87.5147 326.436 87.7734 327.815 88.4631C329.195 88.9805 329.971 90.1014 330.143 91.8258C330.316 93.3778 329.54 95.7057 327.815 98.8097C326.091 102.086 324.108 105.621 321.866 109.415C319.797 113.036 317.728 116.744 315.658 120.537C313.589 124.159 311.52 127.694 309.45 131.143C307.553 134.591 305.829 137.609 304.277 140.196C302.725 142.955 301.259 145.714 299.88 148.473C298.5 151.06 297.379 153.474 296.517 155.716C295.827 157.785 295.655 159.509 296 160.889C296.517 162.268 297.811 162.958 299.88 162.958C303.156 162.958 306.691 162.096 310.485 160.372C314.451 158.647 318.417 156.319 322.384 153.388C326.35 150.456 330.143 147.094 333.765 143.3C337.386 139.506 340.49 135.454 343.077 131.143C344.801 128.384 346.525 126.573 348.25 125.711C350.147 124.676 351.699 124.504 352.906 125.193C354.113 125.883 354.803 127.263 354.975 129.332C355.148 131.229 354.372 133.643 352.647 136.575C349.716 141.92 345.491 147.525 339.973 153.388C334.454 159.078 328.505 164.338 322.125 169.166C315.917 173.822 309.795 177.702 303.76 180.806C297.724 183.91 292.637 185.462 288.499 185.462C282.463 185.462 277.29 184.082 272.979 181.323C268.84 178.392 266.943 173.822 267.288 167.614C262.115 173.65 256.769 178.133 251.251 181.065C245.733 183.996 240.301 185.462 234.955 185.462C226.851 185.462 221.677 182.53 219.436 176.667C217.021 170.804 217.194 162.958 219.953 153.129C222.712 143.472 226.333 134.505 230.817 126.228C235.3 117.778 239.784 110.45 244.267 104.242C246.336 101.31 248.147 98.8959 249.699 96.999C251.424 95.1022 253.062 93.6364 254.614 92.6018C256.338 91.3947 258.149 90.5325 260.046 90.0151C262.115 89.4978 264.615 88.9805 267.547 88.4631C270.306 88.1183 272.806 87.9458 275.048 87.9458C277.29 87.7734 278.928 88.032 279.963 88.7218C281.17 89.4116 281.687 90.5325 281.515 92.0844C281.342 93.6364 280.221 95.8782 278.152 98.8097ZM447.152 136.575C444.221 140.541 441.031 143.731 437.582 146.145C434.305 148.387 430.943 150.025 427.494 151.06C424.045 151.922 420.596 152.267 417.147 152.094C413.698 151.749 410.508 151.06 407.577 150.025C404.3 155.198 400.593 159.94 396.454 164.252C392.488 168.563 388.349 172.27 384.038 175.374C379.9 178.478 375.675 180.978 371.364 182.875C367.225 184.6 363.432 185.462 359.983 185.462C353.947 185.462 348.774 183.393 344.463 179.254C340.324 174.943 338.083 168.649 337.738 160.372C337.22 152.094 339.117 141.834 343.428 129.591C347.739 117.175 355.499 102.776 366.708 86.3938C374.468 75.0127 381.969 65.4421 389.212 57.6822C396.627 49.7499 403.524 43.5419 409.905 39.0584C416.458 34.5749 422.321 31.8159 427.494 30.7812C432.84 29.7466 437.237 30.3501 440.686 32.5919C446.376 36.3856 447.497 42.5935 444.048 51.2156C440.772 59.8377 433.184 69.5807 421.286 80.4446C417.837 83.5485 414.043 86.7387 409.905 90.0151C405.766 93.2915 401.541 96.5679 397.23 99.8443C393.092 103.121 388.953 106.311 384.814 109.415C380.676 112.346 376.882 115.105 373.433 117.692C371.019 122.52 369.036 127.349 367.484 132.177C366.104 137.006 365.242 141.403 364.897 145.369C364.725 149.163 365.156 152.439 366.191 155.198C367.225 157.785 368.95 159.423 371.364 160.113C373.95 160.975 376.451 160.975 378.865 160.113C381.452 159.251 383.78 157.957 385.849 156.233C388.091 154.509 390.074 152.525 391.798 150.284C393.523 148.042 394.902 145.886 395.937 143.817C391.971 141.058 389.384 137.264 388.177 132.436C387.142 127.608 387.832 122.607 390.246 117.433C391.626 114.329 393.35 111.657 395.42 109.415C397.489 107.173 399.644 105.449 401.886 104.242C404.128 102.862 406.37 102 408.611 101.655C410.853 101.31 412.836 101.483 414.561 102.172C419.389 104.069 422.234 107.949 423.097 113.812C424.131 119.503 421.545 127.349 415.337 137.351C418.958 138.558 422.924 138.816 427.235 138.127C431.546 137.437 434.909 135.109 437.323 131.143C439.047 128.384 440.944 126.573 443.014 125.711C445.083 124.848 446.721 124.762 447.928 125.452C449.308 126.142 449.998 127.521 449.998 129.591C450.17 131.487 449.222 133.815 447.152 136.575ZM428.27 51.2156C427.235 50.5259 425.511 51.1294 423.097 53.0263C420.855 54.7507 418.096 57.4235 414.819 61.0448C411.715 64.6661 408.18 68.9772 404.214 73.978C400.42 78.9788 396.454 84.1521 392.316 89.4978C397.489 85.1867 402.403 80.9619 407.059 76.8233C411.888 72.5122 415.94 68.6323 419.217 65.1834C422.665 61.5622 425.252 58.5444 426.976 56.1302C428.701 53.716 429.132 52.0778 428.27 51.2156ZM505.418 132.177C499.9 137.178 493.175 141.403 485.242 144.852C477.483 148.128 469.636 150.37 461.704 151.577C462.566 155.371 464.291 158.302 466.877 160.372C469.636 162.268 472.568 163.476 475.672 163.993C480.155 164.855 485.156 164.596 490.674 163.217C496.193 161.665 501.711 159.423 507.229 156.492C512.747 153.388 518.006 149.68 523.007 145.369C528.181 141.058 532.664 136.316 536.458 131.143C538.527 128.556 540.51 126.832 542.407 125.969C544.476 125.107 546.115 125.021 547.322 125.711C548.529 126.4 549.132 127.694 549.132 129.591C549.132 131.487 548.184 133.815 546.287 136.575C541.114 143.99 535.423 150.715 529.215 156.75C523.007 162.786 516.541 167.959 509.815 172.27C503.09 176.409 496.106 179.685 488.864 182.099C481.794 184.341 474.81 185.462 467.912 185.462C459.98 185.462 453.254 183.91 447.736 180.806C442.218 177.53 438.166 173.219 435.579 167.873C432.992 162.355 432.044 155.888 432.734 148.473C433.251 141.058 435.665 133.212 439.976 124.935C442.908 119.072 446.615 113.467 451.099 108.122C455.755 102.603 460.842 98.0337 466.36 94.4124C472.051 90.7911 478 88.3769 484.208 87.1698C490.416 85.9627 496.624 86.6525 502.832 89.2391C507.487 91.3084 511.023 93.9813 513.437 97.2577C515.851 100.534 517.144 104.155 517.317 108.122C517.489 112.088 516.541 116.226 514.471 120.537C512.575 124.676 509.557 128.556 505.418 132.177ZM462.997 136.316C468.688 135.281 474.551 133.471 480.586 130.884C486.794 128.125 492.14 123.728 496.624 117.692C499.728 113.553 500.504 110.277 498.952 107.863C497.572 105.276 494.985 104.242 491.192 104.759C487.57 105.104 483.259 107.346 478.259 111.484C473.43 115.623 469.033 122.176 465.067 131.143L462.997 136.316ZM748.44 136.575C744.647 142.955 739.991 149.077 734.473 154.94C729.127 160.803 723.35 166.062 717.142 170.718C711.107 175.202 704.899 178.823 698.518 181.582C692.311 184.169 686.534 185.462 681.188 185.462C675.153 185.462 670.497 183.393 667.22 179.254C663.944 174.943 662.133 169.683 661.788 163.476C659.891 165.89 657.736 168.39 655.322 170.977C652.907 173.391 650.148 175.719 647.044 177.961C643.94 180.202 640.492 182.013 636.698 183.393C632.904 184.772 628.852 185.462 624.541 185.462C617.815 185.462 612.211 183.651 607.728 180.03C603.244 176.236 600.226 171.322 598.674 165.286C597.122 159.251 597.209 152.439 598.933 144.852C600.485 137.264 604.106 129.591 609.797 121.831C614.798 115.105 620.316 109.501 626.351 105.018C632.559 100.534 638.767 97.1715 644.975 94.9297C651.183 92.688 657.219 91.7396 663.082 92.0844C668.945 92.4293 674.204 94.0675 678.86 96.999C680.584 92.8604 682.481 88.3769 684.551 83.5485C686.792 78.7202 688.948 74.0642 691.017 69.5807C693.087 65.0972 694.983 60.9586 696.708 57.1649C698.605 53.1987 700.07 50.0085 701.105 47.5943C702.83 43.8006 704.209 40.7829 705.244 38.5411C706.451 36.1269 707.658 34.2301 708.865 32.8505C710.072 31.2985 711.538 30.0914 713.262 29.2292C714.987 28.367 717.401 27.5048 720.505 26.6426C723.609 25.7804 726.627 25.0044 729.558 24.3146C732.662 23.4524 735.249 23.1075 737.318 23.28C739.387 23.28 740.767 23.9697 741.457 25.3493C742.319 26.5564 742.06 28.7981 740.681 32.0745C739.646 34.3163 738.094 37.6789 736.025 42.1624C733.955 46.6459 731.541 51.8192 728.782 57.6822C726.195 63.3728 723.35 69.4945 720.246 76.0473C717.315 82.4277 714.469 88.6356 711.71 94.6711C709.124 100.534 706.623 105.966 704.209 110.967C701.967 115.968 700.243 119.848 699.036 122.607C697.139 126.745 695.328 131.056 693.604 135.54C692.052 139.851 691.017 143.903 690.5 147.697C690.155 151.318 690.5 154.336 691.535 156.75C692.742 158.992 695.242 160.113 699.036 160.113C706.623 160.113 713.866 157.44 720.764 152.094C727.661 146.749 733.61 139.765 738.611 131.143C740.336 128.384 742.06 126.573 743.785 125.711C745.681 124.676 747.233 124.504 748.44 125.193C749.82 125.883 750.596 127.263 750.768 129.332C750.941 131.229 750.165 133.643 748.44 136.575ZM634.111 160.63C641.354 160.63 647.82 156.578 653.511 148.473C659.202 140.196 665.065 128.901 671.1 114.588L668.514 113.553C665.582 112.519 662.219 112.346 658.426 113.036C654.804 113.553 651.011 114.847 647.044 116.916C643.251 118.985 639.543 121.745 635.922 125.193C632.301 128.47 629.197 132.263 626.61 136.575C624.886 139.506 623.679 142.438 622.989 145.369C622.471 148.301 622.471 150.887 622.989 153.129C623.506 155.371 624.713 157.181 626.61 158.561C628.507 159.94 631.007 160.63 634.111 160.63ZM795.913 87.6872C802.121 87.6872 807.381 88.9805 811.692 91.5671C816.175 93.9813 819.538 97.3439 821.78 101.655C824.194 105.794 825.487 110.794 825.66 116.657C826.004 122.348 825.142 128.47 823.073 135.023C824.797 136.057 826.867 136.919 829.281 137.609C831.695 138.299 834.109 138.558 836.523 138.385C839.11 138.213 841.524 137.609 843.766 136.575C846.18 135.367 848.163 133.557 849.715 131.143C851.44 128.384 853.337 126.573 855.406 125.711C857.475 124.848 859.113 124.762 860.32 125.452C861.7 126.142 862.39 127.521 862.39 129.591C862.562 131.487 861.614 133.815 859.544 136.575C856.44 140.886 852.992 144.248 849.198 146.662C845.577 148.904 841.869 150.456 838.075 151.318C834.282 152.181 830.574 152.439 826.953 152.094C823.332 151.577 820.055 150.542 817.124 148.99C814.192 154.336 810.743 159.251 806.777 163.734C802.811 168.218 798.5 172.098 793.844 175.374C789.188 178.65 784.187 181.237 778.841 183.134C773.668 184.858 768.409 185.721 763.063 185.721C756.683 185.721 751.251 184.427 746.767 181.841C742.284 179.254 738.921 175.805 736.679 171.494C734.265 167.011 733.058 161.751 733.058 155.716C732.886 149.68 733.92 143.3 736.162 136.575C738.404 129.849 741.508 123.555 745.474 117.692C749.613 111.657 754.355 106.483 759.7 102.172C765.046 97.6888 770.737 94.1537 776.772 91.5671C782.98 88.9805 789.36 87.6872 795.913 87.6872ZM777.031 158.561C783.066 158.561 788.584 156.664 793.585 152.87C798.759 148.904 802.811 143.903 805.742 137.868C803.328 134.764 801.604 131.746 800.569 128.815C799.707 125.711 799.19 122.779 799.017 120.02C798.845 117.261 799.017 114.761 799.535 112.519C800.224 110.105 800.914 107.949 801.604 106.052C800.742 105.707 799.707 105.449 798.5 105.276C797.465 105.104 796.344 105.018 795.137 105.018C787.895 105.018 781.514 107.604 775.996 112.778C770.478 117.951 766.426 124.245 763.839 131.66C761.425 139.075 761.252 145.455 763.322 150.801C765.391 155.974 769.961 158.561 777.031 158.561ZM973.979 80.9619C970.875 73.7193 970.789 66.0457 973.72 57.9409C976.652 49.6636 982.17 41.99 990.275 34.9198C998.552 27.8497 1009.24 21.9867 1022.35 17.3307C1035.45 12.6748 1050.72 10.3468 1068.13 10.3468C1082.44 10.3468 1094.6 12.4161 1104.6 16.5547C1114.78 20.6933 1122.88 26.2115 1128.92 33.1092C1135.13 39.8344 1139.26 47.5943 1141.33 56.3889C1143.4 65.011 1143.58 73.8918 1141.85 83.0312C1140.13 91.9982 1136.51 100.793 1130.99 109.415C1125.64 118.037 1118.4 125.797 1109.26 132.695C1100.12 139.42 1089.17 144.852 1076.41 148.99C1063.65 153.129 1049.16 155.198 1032.95 155.198C1024.68 155.198 1017.69 154.25 1012 152.353L1001.66 176.409C997.69 185.031 993.12 192.36 987.947 198.395C982.946 204.603 977.6 209.345 971.909 212.622C966.219 216.07 960.27 218.053 954.062 218.571C948.026 219.088 942.163 217.967 936.473 215.208C931.472 212.794 927.678 209.518 925.091 205.379C922.505 201.413 920.694 197.274 919.659 192.963C918.797 188.652 918.625 184.513 919.142 180.547C919.659 176.409 920.435 173.132 921.47 170.718C922.677 168.304 923.971 167.011 925.35 166.838C926.73 166.666 927.937 168.218 928.971 171.494C930.006 175.115 931.644 177.961 933.886 180.03C936.3 181.927 938.973 183.22 941.905 183.91C945.008 184.427 948.112 184.341 951.216 183.651C954.493 182.962 957.597 181.668 960.528 179.771C962.77 178.219 965.012 176.236 967.254 173.822C969.668 171.408 971.909 168.821 973.979 166.062C976.048 163.131 978.031 160.199 979.928 157.268C981.825 154.164 983.549 151.232 985.101 148.473C988.895 141.403 992.861 133.643 997 125.193C1001.14 116.571 1005.45 108.035 1009.93 99.5857C1006.66 99.9306 1003.21 99.9306 999.586 99.5857C996.138 99.2408 992.775 98.3786 989.499 96.999C986.395 95.6195 983.463 93.6364 980.704 91.0498C977.945 88.4631 975.703 85.1005 973.979 80.9619ZM1059.08 48.8877C1063.56 49.0601 1065.37 50.6983 1064.51 53.8023C1063.65 56.7338 1060.63 60.6137 1055.46 65.4421C1052.53 68.2012 1049.51 71.9949 1046.4 76.8233C1043.47 81.4792 1040.54 86.825 1037.61 92.8604C1034.68 98.8959 1031.66 105.449 1028.56 112.519C1025.63 119.417 1022.61 126.487 1019.5 133.729C1021.57 135.281 1023.99 136.575 1026.75 137.609C1029.51 138.644 1032.61 138.989 1036.06 138.644C1044.85 138.127 1053.04 136.057 1060.63 132.436C1068.22 128.642 1074.94 123.986 1080.81 118.468C1086.84 112.95 1091.84 106.828 1095.81 100.103C1099.95 93.2053 1102.97 86.2214 1104.86 79.1513C1106.76 72.0811 1107.45 65.2697 1106.93 58.7169C1106.41 52.1641 1104.52 46.3872 1101.24 41.3864C1097.96 36.3856 1093.22 32.5056 1087.01 29.7466C1080.81 26.9875 1072.96 25.8666 1063.48 26.3839C1047.44 27.4186 1035.02 30.3501 1026.23 35.1785C1017.61 40.0069 1011.83 45.4388 1008.9 51.4743C1006.14 57.3373 1005.88 63.1141 1008.12 68.8047C1010.36 74.3229 1014.5 78.3753 1020.54 80.9619C1026.4 71.65 1032.52 63.9763 1038.9 57.9409C1045.28 51.7329 1052.01 48.7152 1059.08 48.8877ZM1191.56 98.8097C1182.42 111.57 1175.52 122.003 1170.86 130.108C1166.21 138.213 1163.1 144.593 1161.55 149.249C1160 153.733 1159.66 156.837 1160.52 158.561C1161.55 160.285 1163.1 161.148 1165.17 161.148C1168.45 161.148 1171.38 160.199 1173.97 158.302C1176.73 156.405 1179.31 153.905 1181.73 150.801C1184.14 147.697 1186.47 144.162 1188.71 140.196C1191.13 136.057 1193.63 131.832 1196.21 127.521C1198.28 123.038 1200.18 118.985 1201.9 115.364C1203.63 111.57 1205.44 107.863 1207.34 104.242C1208.89 100.965 1210.27 98.3786 1211.47 96.4817C1212.85 94.5848 1214.23 93.1191 1215.61 92.0844C1217.16 91.0498 1218.89 90.36 1220.79 90.0151C1222.68 89.4978 1225.01 88.9805 1227.77 88.4631C1230.53 88.1183 1233.12 87.8596 1235.53 87.6872C1237.94 87.5147 1239.84 87.7734 1241.22 88.4631C1242.6 88.9805 1243.38 90.1014 1243.55 91.8258C1243.72 93.3778 1242.94 95.7057 1241.22 98.8097C1239.5 102.086 1237.51 105.621 1235.27 109.415C1233.2 113.036 1231.13 116.744 1229.06 120.537C1226.99 124.159 1224.92 127.694 1222.86 131.143C1220.96 134.591 1219.23 137.609 1217.68 140.196C1216.13 142.955 1214.66 145.714 1213.28 148.473C1211.91 151.06 1210.78 153.474 1209.92 155.716C1209.23 157.785 1209.06 159.509 1209.4 160.889C1209.92 162.268 1211.22 162.958 1213.28 162.958C1216.56 162.958 1220.1 162.096 1223.89 160.372C1227.86 158.647 1231.82 156.319 1235.79 153.388C1239.75 150.456 1243.55 147.094 1247.17 143.3C1250.79 139.506 1253.89 135.454 1256.48 131.143C1258.21 128.384 1259.93 126.573 1261.65 125.711C1263.55 124.676 1265.1 124.504 1266.31 125.193C1267.52 125.883 1268.21 127.263 1268.38 129.332C1268.55 131.229 1267.78 133.643 1266.05 136.575C1263.12 141.92 1258.9 147.525 1253.38 153.388C1247.86 159.078 1241.91 164.338 1235.53 169.166C1229.32 173.822 1223.2 177.702 1217.16 180.806C1211.13 183.91 1206.04 185.462 1201.9 185.462C1195.87 185.462 1190.69 184.082 1186.38 181.323C1182.25 178.392 1180.35 173.822 1180.69 167.614C1175.52 173.65 1170.17 178.133 1164.66 181.065C1159.14 183.996 1153.71 185.462 1148.36 185.462C1140.26 185.462 1135.08 182.53 1132.84 176.667C1130.43 170.804 1130.6 162.958 1133.36 153.129C1136.12 143.472 1139.74 134.505 1144.22 126.228C1148.71 117.778 1153.19 110.45 1157.67 104.242C1159.74 101.31 1161.55 98.8959 1163.1 96.999C1164.83 95.1022 1166.47 93.6364 1168.02 92.6018C1169.74 91.3947 1171.55 90.5325 1173.45 90.0151C1175.52 89.4978 1178.02 88.9805 1180.95 88.4631C1183.71 88.1183 1186.21 87.9458 1188.45 87.9458C1190.69 87.7734 1192.33 88.032 1193.37 88.7218C1194.57 89.4116 1195.09 90.5325 1194.92 92.0844C1194.75 93.6364 1193.63 95.8782 1191.56 98.8097ZM1400.91 136.575C1397.12 142.955 1392.46 149.077 1386.94 154.94C1381.6 160.803 1375.82 166.062 1369.61 170.718C1363.57 175.202 1357.37 178.823 1350.99 181.582C1344.78 184.169 1339 185.462 1333.66 185.462C1327.62 185.462 1322.96 183.393 1319.69 179.254C1316.41 174.943 1314.6 169.683 1314.26 163.476C1312.36 165.89 1310.2 168.39 1307.79 170.977C1305.38 173.391 1302.62 175.719 1299.51 177.961C1296.41 180.202 1292.96 182.013 1289.17 183.393C1285.37 184.772 1281.32 185.462 1277.01 185.462C1270.28 185.462 1264.68 183.651 1260.2 180.03C1255.71 176.236 1252.69 171.322 1251.14 165.286C1249.59 159.251 1249.68 152.439 1251.4 144.852C1252.95 137.264 1256.57 129.591 1262.27 121.831C1267.27 115.105 1272.78 109.501 1278.82 105.018C1285.03 100.534 1291.24 97.1715 1297.44 94.9297C1303.65 92.688 1309.69 91.7396 1315.55 92.0844C1321.41 92.4293 1326.67 94.0675 1331.33 96.999C1333.05 92.8604 1334.95 88.3769 1337.02 83.5485C1339.26 78.7202 1341.42 74.0642 1343.49 69.5807C1345.55 65.0972 1347.45 60.9586 1349.18 57.1649C1351.07 53.1987 1352.54 50.0085 1353.57 47.5943C1355.3 43.8006 1356.68 40.7829 1357.71 38.5411C1358.92 36.1269 1360.13 34.2301 1361.33 32.8505C1362.54 31.2985 1364.01 30.0914 1365.73 29.2292C1367.45 28.367 1369.87 27.5048 1372.97 26.6426C1376.08 25.7804 1379.09 25.0044 1382.03 24.3146C1385.13 23.4524 1387.72 23.1075 1389.79 23.28C1391.86 23.28 1393.24 23.9697 1393.92 25.3493C1394.79 26.5564 1394.53 28.7981 1393.15 32.0745C1392.11 34.3163 1390.56 37.6789 1388.49 42.1624C1386.42 46.6459 1384.01 51.8192 1381.25 57.6822C1378.66 63.3728 1375.82 69.4945 1372.71 76.0473C1369.78 82.4277 1366.94 88.6356 1364.18 94.6711C1361.59 100.534 1359.09 105.966 1356.68 110.967C1354.44 115.968 1352.71 119.848 1351.5 122.607C1349.61 126.745 1347.8 131.056 1346.07 135.54C1344.52 139.851 1343.49 143.903 1342.97 147.697C1342.62 151.318 1342.97 154.336 1344 156.75C1345.21 158.992 1347.71 160.113 1351.5 160.113C1359.09 160.113 1366.33 157.44 1373.23 152.094C1380.13 146.749 1386.08 139.765 1391.08 131.143C1392.8 128.384 1394.53 126.573 1396.25 125.711C1398.15 124.676 1399.7 124.504 1400.91 125.193C1402.29 125.883 1403.06 127.263 1403.24 129.332C1403.41 131.229 1402.63 133.643 1400.91 136.575ZM1286.58 160.63C1293.82 160.63 1300.29 156.578 1305.98 148.473C1311.67 140.196 1317.53 128.901 1323.57 114.588L1320.98 113.553C1318.05 112.519 1314.69 112.346 1310.89 113.036C1307.27 113.553 1303.48 114.847 1299.51 116.916C1295.72 118.985 1292.01 121.745 1288.39 125.193C1284.77 128.47 1281.66 132.263 1279.08 136.575C1277.35 139.506 1276.15 142.438 1275.46 145.369C1274.94 148.301 1274.94 150.887 1275.46 153.129C1275.97 155.371 1277.18 157.181 1279.08 158.561C1280.98 159.94 1283.48 160.63 1286.58 160.63ZM1437.26 98.8097C1435.53 102.086 1433.55 105.621 1431.31 109.415C1429.24 113.036 1427.17 116.744 1425.1 120.537C1423.03 124.159 1420.96 127.694 1418.89 131.143C1417 134.591 1415.27 137.609 1413.72 140.196C1412.17 142.955 1410.7 145.714 1409.32 148.473C1407.94 151.06 1406.82 153.474 1405.96 155.716C1405.27 157.785 1405.1 159.509 1405.44 160.889C1405.96 162.268 1407.25 162.958 1409.32 162.958C1412.6 162.958 1416.13 162.096 1419.93 160.372C1423.89 158.647 1427.86 156.319 1431.83 153.388C1435.79 150.456 1439.59 147.094 1443.21 143.3C1446.83 139.506 1449.93 135.454 1452.52 131.143C1454.24 128.384 1455.97 126.573 1457.69 125.711C1459.59 124.676 1461.14 124.504 1462.35 125.193C1463.56 125.883 1464.25 127.263 1464.42 129.332C1464.59 131.229 1463.82 133.643 1462.09 136.575C1459.16 141.92 1454.93 147.525 1449.42 153.388C1443.9 159.078 1437.95 164.338 1431.57 169.166C1425.36 173.822 1419.24 177.702 1413.2 180.806C1407.17 183.91 1402.08 185.462 1397.94 185.462C1393.98 185.462 1390.35 184.858 1387.08 183.651C1383.8 182.444 1381.3 180.547 1379.58 177.961C1377.68 175.202 1376.82 171.839 1376.99 167.873C1376.99 163.734 1378.28 158.82 1380.87 153.129C1383.46 147.438 1385.78 142.351 1387.85 137.868C1389.75 133.212 1391.56 128.987 1393.29 125.193C1395.18 121.227 1396.91 117.606 1398.46 114.329C1400.18 110.881 1401.82 107.518 1403.37 104.242C1404.93 100.965 1406.31 98.3786 1407.51 96.4817C1408.89 94.5848 1410.27 93.1191 1411.65 92.0844C1413.2 91.0498 1414.93 90.36 1416.82 90.0151C1418.72 89.4978 1421.05 88.9805 1423.81 88.4631C1426.57 88.1183 1429.15 87.8596 1431.57 87.6872C1433.98 87.5147 1435.88 87.7734 1437.26 88.4631C1438.81 88.9805 1439.59 90.1014 1439.59 91.8258C1439.76 93.3778 1438.98 95.7057 1437.26 98.8097ZM1458.99 48.3703C1460.19 51.3018 1460.28 54.2334 1459.25 57.1649C1458.21 59.924 1456.4 62.5106 1453.81 64.9248C1451.4 67.1665 1448.47 69.0634 1445.02 70.6154C1441.74 71.9949 1438.47 72.8571 1435.19 73.202C1431.91 73.3745 1428.9 72.9433 1426.14 71.9087C1423.55 70.874 1421.74 68.9772 1420.7 66.2181C1419.5 63.459 1419.41 60.6999 1420.45 57.9409C1421.65 55.0093 1423.46 52.4227 1425.88 50.181C1428.29 47.7668 1431.14 45.7837 1434.41 44.2317C1437.69 42.5073 1440.88 41.4726 1443.98 41.1278C1447.26 40.7829 1450.19 41.214 1452.78 42.4211C1455.54 43.4557 1457.61 45.4388 1458.99 48.3703ZM1616.59 131.143C1618.31 128.384 1620.03 126.573 1621.76 125.711C1623.66 124.676 1625.21 124.504 1626.41 125.193C1627.62 125.883 1628.31 127.263 1628.48 129.332C1628.66 131.229 1627.97 133.643 1626.41 136.575C1623.48 141.92 1619.17 147.525 1613.48 153.388C1607.96 159.078 1602.1 164.338 1595.89 169.166C1589.68 173.822 1583.48 177.702 1577.27 180.806C1571.23 183.91 1566.23 185.462 1562.27 185.462C1558.13 185.462 1554.33 184.858 1550.88 183.651C1547.61 182.444 1544.94 180.547 1542.87 177.961C1540.97 175.202 1539.93 171.839 1539.76 167.873C1539.59 163.734 1540.8 158.82 1543.38 153.129C1545.45 148.818 1548.13 143.99 1551.4 138.644C1554.68 133.126 1557.52 128.039 1559.94 123.383C1562.35 118.727 1563.73 114.847 1564.08 111.743C1564.59 108.639 1563.04 107.173 1559.42 107.346C1556.49 107.518 1552.87 109.932 1548.56 114.588C1544.25 119.244 1539.76 125.021 1535.11 131.919C1530.45 138.816 1525.97 146.145 1521.66 153.905C1517.52 161.665 1514.07 168.735 1511.31 175.115C1509.59 178.909 1503.29 180.806 1492.43 180.806C1489.84 180.806 1488.03 180.116 1487 178.737C1486.13 177.357 1485.87 175.46 1486.22 173.046C1486.74 170.632 1487.6 167.7 1488.81 164.252C1490.19 160.803 1491.82 157.095 1493.72 153.129C1495.79 148.818 1498.46 143.99 1501.74 138.644C1505.02 133.126 1507.86 128.039 1510.27 123.383C1512.69 118.727 1514.07 114.847 1514.41 111.743C1514.93 108.639 1513.38 107.173 1509.76 107.346C1506.83 107.518 1503.03 109.932 1498.38 114.588C1493.72 119.244 1488.81 125.021 1483.63 131.919C1478.63 138.816 1473.8 146.145 1469.15 153.905C1464.66 161.665 1461.04 168.735 1458.28 175.115C1456.73 178.909 1455.35 181.582 1454.14 183.134C1453.11 184.686 1451.64 185.462 1449.75 185.462H1443.28C1439.14 185.462 1436.3 184.772 1434.75 183.393C1433.19 182.013 1433.02 179.34 1434.23 175.374C1435.61 171.408 1436.9 167.7 1438.11 164.252C1439.31 160.803 1440.87 157.095 1442.76 153.129C1445.18 147.438 1447.42 142.351 1449.49 137.868C1451.39 133.212 1453.2 128.987 1454.92 125.193C1456.82 121.227 1458.63 117.606 1460.35 114.329C1462.08 110.881 1463.72 107.518 1465.27 104.242C1466.82 100.965 1468.37 98.3786 1469.92 96.4817C1471.65 94.5848 1473.46 93.1191 1475.36 92.0844C1477.25 90.8773 1479.24 90.1013 1481.3 89.7565C1483.55 89.2391 1486.13 88.808 1489.06 88.4631C1493.55 88.1183 1495.88 89.0667 1496.05 91.3084C1496.39 93.5502 1495.27 97.4301 1492.69 102.948C1497.69 98.2924 1502.77 94.4986 1507.95 91.5671C1513.12 88.6356 1518.38 87.1698 1523.73 87.1698C1537.52 87.1698 1543.73 92.4293 1542.35 102.948C1547.35 98.2924 1552.44 94.4986 1557.61 91.5671C1562.78 88.6356 1568.04 87.1698 1573.39 87.1698C1579.94 87.1698 1584.6 88.7218 1587.36 91.8258C1590.29 94.9297 1591.75 99.0683 1591.75 104.242C1591.75 109.242 1590.46 114.933 1587.87 121.313C1585.29 127.521 1581.92 133.815 1577.79 140.196C1576.06 142.782 1574.42 145.455 1572.87 148.214C1571.49 150.801 1570.46 153.215 1569.77 155.457C1569.25 157.699 1569.16 159.509 1569.51 160.889C1570.03 162.268 1571.41 162.958 1573.65 162.958C1576.92 162.958 1580.46 162.096 1584.25 160.372C1588.22 158.647 1592.18 156.319 1596.15 153.388C1600.12 150.456 1603.82 147.094 1607.27 143.3C1610.89 139.506 1614 135.454 1616.59 131.143Z" fill="#1A3B2B"/>
</svg>
